<svg xmlns="http://www.w3.org/2000/svg" xmlns:xlink="http://www.w3.org/1999/xlink" viewBox="0 0 198.83 198.83"><defs><style>.cls-1,.cls-9{fill:#fff;}.cls-1,.cls-11,.cls-4,.cls-5,.cls-6,.cls-7,.cls-8{stroke:#000;stroke-miterlimit:10;}.cls-1,.cls-11,.cls-4,.cls-5{stroke-linecap:round;}.cls-2{fill:#ed4192;}.cls-3,.cls-7{fill:#29d1ff;}.cls-4,.cls-5,.cls-6,.cls-8{fill:none;}.cls-4,.cls-7,.cls-8{stroke-width:2px;}.cls-10{clip-path:url(#clip-path);}.cls-12{clip-path:url(#clip-path-2);}</style><clipPath id="clip-path" transform="translate(-0.58 -0.58)"><path class="cls-1" d="M111.41,51.15s2.71-2.95,6-2.84a10,10,0,0,1,5.13,1.39,31.21,31.21,0,0,1-6.68,1.82A11.13,11.13,0,0,1,111.41,51.15Z"/></clipPath><clipPath id="clip-path-2" transform="translate(-0.58 -0.58)"><path class="cls-1" d="M134.34,47.41s2.07-3.54,5.22-3.1S143.15,46,143.15,46s-.59.25-1.41.55a21.55,21.55,0,0,1-3.91,1.16A7.68,7.68,0,0,1,134.34,47.41Z"/></clipPath></defs><g id="Layer_13" data-name="Layer 13"><circle class="cls-2" cx="99.42" cy="99.42" r="99.42"/></g><g id="Layer_6" data-name="Layer 6"><polygon points="176.71 77.55 183.64 77.12 185.34 82.11 177.82 83.58 176.71 77.55"/><path class="cls-3" d="M77.78,98.84c2-1.33,7.14-5.2,3.46-15.43C76,68.9,53,72.37,51.71,62.43,50.32,51.37,70.19,50.75,70.5,36.72c.21-9.7-8.45-11.55-12.65-11.87a.41.41,0,0,0-.21.78c4.44,2.11,13.17,8.07-7.11,15.74-8.3,3.14-17.89,8-23.52,14.33C21.77,61.64,12.64,79,31.5,94.88c8.39,7.07-9.22,6.77-15.2,28.89-12,44.51,49.43,68.5,83.69,55.52,29.84-11.31,23.73-33,34.87-39.58,5.28-3.1,8.08-17.73,8.73-19.85.93-3,1.06-5.32,6-7,8.17-2.85,16.42-11.69,18.7-14,1.75-1.78,3.58-4.14,5.6-4.13,13.69.08,15.45-4.29,17.64-5.46l-3.68-7.94-9.91,1.67c-.06,0-.09-.08,0-.1a5.75,5.75,0,0,0,3.2-5.21c0-2-1.49-3.21-1-6.9.57-4.11-2.12-6.66-3.63-6.29s1.44,8.62-6.8,14.92a9.26,9.26,0,0,0-3.64,6.11c-.36,1.49-1.92,2.85-4.67,4.72-9.15,6.23-21.22,11.69-25.08,12.06h-.94c-7.1-.41-1.09-14.75-1.09-14.75l-25.13-4.09s-1.67,15.3-4.52,16.69S92.77,95,79.82,98.2l-6.22,2c-7.22,3-7.47,6.29-9.06,7.64-1.94,1.65-4.66,4-4.66,4l-.77.65c-5.79,4.05-9.77,15.36-14.16,19.7" transform="translate(-0.58 -0.58)"/><path class="cls-4" d="M77.78,98.84c2-1.33,7.14-5.2,3.46-15.43C76,68.9,53,72.37,51.71,62.43,50.32,51.37,70.19,50.75,70.5,36.72c.21-9.7-8.45-11.55-12.65-11.87a.41.41,0,0,0-.21.78c4.44,2.11,13.17,8.07-7.11,15.74-8.3,3.14-17.89,8-23.52,14.33C21.77,61.64,12.64,79,31.5,94.88c8.39,7.07-9.22,6.77-15.2,28.89-12,44.51,49.43,68.5,83.69,55.52,29.84-11.31,23.73-33,34.87-39.58,5.28-3.1,8.08-17.73,8.73-19.85.93-3,1.06-5.32,6-7,8.17-2.85,16.42-11.69,18.7-14,1.75-1.78,3.58-4.14,5.6-4.13,13.69.08,15.45-4.29,17.64-5.46l-3.68-7.94-9.91,1.67c-.06,0-.09-.08,0-.1a5.75,5.75,0,0,0,3.2-5.21c0-2-1.49-3.21-1-6.9.57-4.11-2.12-6.66-3.63-6.29s1.44,8.62-6.8,14.92a9.26,9.26,0,0,0-3.64,6.11c-.36,1.49-1.92,2.85-4.67,4.72-9.15,6.23-21.22,11.69-25.08,12.06h-.94c-7.1-.41-1.09-14.75-1.09-14.75l-25.13-4.09s-1.67,15.3-4.52,16.69S92.77,95,79.82,98.2l-6.22,2c-7.22,3-7.47,6.29-9.06,7.64-1.94,1.65-4.66,4-4.66,4l-.77.65c-5.79,4.05-9.77,15.36-14.16,19.7" transform="translate(-0.58 -0.58)"/><path class="cls-5" d="M48.32,93.64" transform="translate(-0.58 -0.58)"/><path class="cls-5" d="M74.06,109.25" transform="translate(-0.58 -0.58)"/><path class="cls-4" d="M48.08,127.49a6.27,6.27,0,0,1-1.57-.15c-7.91-2.8-9.75,3.44-11.79,4.07-1.11.34-2.73.07-5.69,1.06-6.79,2.29-7.83,4.69-7.17,5.72.86,1.36-.05,1.26,7.42-2.14,3.12-1.42,6.82-1.79,7-1.05.3,1.29-3,2.69-5.56,5.31-4.29,4.37-4.63,6.58-4,8.58.35,1.18,2.94-2.27,5.82-4.93,2.68-2.49,5.46-4.36,6.37-3.8s-2.15,2.85-4.19,5.89c-3.14,4.68-2,6.9-1.06,7.92s2.31-2.06,4.17-5.62c1.58-3,5.83-6.33,7.09-5.71.79.39-1.4,2.63-.94,5.09.26,1.43,3.16,5.27,4.4,4.42s-2.57-8.64,4.57-17.35A48.14,48.14,0,0,1,62,125.6a70.51,70.51,0,0,1,7.14-5.09l1.26-1s11.64-10.31,16.22-8.2" transform="translate(-0.58 -0.58)"/><path class="cls-6" d="M185.92,86.57" transform="translate(-0.58 -0.58)"/><path class="cls-7" d="M193.32,78.18a3.66,3.66,0,0,0,.52-3.47c-1.23-3.28-8.7-.79-8.7-.79s-4.33,1.5-4,3.71a2.87,2.87,0,0,0,2,2.32" transform="translate(-0.58 -0.58)"/><path class="cls-7" d="M183.54,85s-1.92-.38-2.15-2c-.18-1.36.78-2.26,1.73-3,1.15-.84,9.44-2.08,10.2-1.77a2.85,2.85,0,0,1,1.88,2.56c.29,1.76-1.8,3.06-1.8,3.06" transform="translate(-0.58 -0.58)"/><path class="cls-7" d="M182.12,87.73c.42,3,9.41,1.48,9.41,1.48s3.53-.69,3-3c-.46-2-1.13-2.41-1.13-2.41-.81-.49-7.23-.36-9.62,1A2.49,2.49,0,0,0,182.12,87.73Z" transform="translate(-0.58 -0.58)"/></g><g id="Layer_2" data-name="Layer 2"><path class="cls-3" d="M134.19,19.33c-2.19-4.3-13.42-13-33.92-2.44C83.4,25.57,90.2,48.2,92,55.32a6,6,0,0,0-3.55,1.25c-.71.71-3.77,3.49,3.17,10.53s5.13,9.91,10.8,8.61c4.22,8.94,12.83,18.12,32.49,11.92C149.59,83,150.24,75,147.69,60.35c-1-5.83-1.78-9-2.7-13.5-.84-4.14-.92-10.05-.17-12.92C146.32,28.3,141,19.93,134.19,19.33Z" transform="translate(-0.58 -0.58)"/><path class="cls-8" d="M134.19,19.33c-2.19-4.3-13.42-13-33.92-2.44C83.4,25.57,90.2,48.2,92,55.32a6,6,0,0,0-3.55,1.25c-.71.71-3.77,3.49,3.17,10.53s5.13,9.91,10.8,8.61c4.22,8.94,12.83,18.12,32.49,11.92C149.59,83,150.24,75,147.69,60.35c-1-5.83-1.78-9-2.7-13.5-.84-4.14-.92-10.05-.17-12.92C146.32,28.3,141,19.93,134.19,19.33Z" transform="translate(-0.58 -0.58)"/><path class="cls-5" d="M116.5,44.82c6.58-.59,10.17,1.73,9.79,6.75C126,56,123.5,57.82,119,58.49s-9.62-.59-10.38-6.83C108,46.61,113.17,45.12,116.5,44.82Z" transform="translate(-0.58 -0.58)"/><path class="cls-5" d="M139.63,40.94c6.29-2,10.3-.57,11,4.41.66,4.44-1.33,6.71-5.54,8.36s-9.51,1.56-11.64-4.36C131.78,44.57,136.45,42,139.63,40.94Z" transform="translate(-0.58 -0.58)"/><path class="cls-5" d="M125.44,47.41a13.1,13.1,0,0,1,4.22-1.91,5.07,5.07,0,0,1,3.55.5" transform="translate(-0.58 -0.58)"/><path class="cls-5" d="M108.65,51.66s-.84-1.86-5.49.08a30.08,30.08,0,0,0-7.82,4.83" transform="translate(-0.58 -0.58)"/></g><g id="Layer_3" data-name="Layer 3"><path class="cls-5" d="M90.27,60.59s.19-2.88,2.07-2.54c1.38.25,3.84,2.74,5,4.05a2,2,0,0,1,.53,1.67,6.15,6.15,0,0,0,3.17,6.57" transform="translate(-0.58 -0.58)"/><path class="cls-5" d="M137.57,59.3a9,9,0,0,0,2.57,4.46,18.71,18.71,0,0,0,3.61,2.38" transform="translate(-0.58 -0.58)"/><path class="cls-5" d="M137.46,59.63s1.5,2.26,0,3.14a4.7,4.7,0,0,1-3.3.39c7-4.23,1.53-8.82.46-10C132.35,50.72,129.55,42,129.55,42" transform="translate(-0.58 -0.58)"/><path class="cls-5" d="M128.4,58s-4.11.31-3.73,4.38a45.08,45.08,0,0,1-1.84,4.84A25.64,25.64,0,0,1,120,71" transform="translate(-0.58 -0.58)"/><path class="cls-5" d="M132.54,62.54a2.05,2.05,0,0,0-2.76-.46c-1.61,1-1.27,2.46-2.77,2.23a3.76,3.76,0,0,1-2.34-2" transform="translate(-0.58 -0.58)"/><path class="cls-9" d="M111.41,51.15s2.71-2.95,6-2.84a10,10,0,0,1,5.13,1.39,31.21,31.21,0,0,1-6.68,1.82A11.13,11.13,0,0,1,111.41,51.15Z" transform="translate(-0.58 -0.58)"/><g class="cls-10"><ellipse class="cls-11" cx="115.55" cy="49.25" rx="1.84" ry="1.66"/></g><path class="cls-5" d="M111.41,51.15s2.71-2.95,6-2.84a10,10,0,0,1,5.13,1.39,31.21,31.21,0,0,1-6.68,1.82A11.13,11.13,0,0,1,111.41,51.15Z" transform="translate(-0.58 -0.58)"/><path class="cls-9" d="M134.34,47.41s2.07-3.54,5.22-3.1S143.15,46,143.15,46s-.59.25-1.41.55a21.55,21.55,0,0,1-3.91,1.16A7.68,7.68,0,0,1,134.34,47.41Z" transform="translate(-0.58 -0.58)"/><g class="cls-12"><circle class="cls-11" cx="137.77" cy="45.7" r="1.84"/></g><path class="cls-5" d="M134.34,47.41s2.07-3.54,5.22-3.1S143.15,46,143.15,46s-.59.25-1.41.55a21.55,21.55,0,0,1-3.91,1.16A7.68,7.68,0,0,1,134.34,47.41Z" transform="translate(-0.58 -0.58)"/><path class="cls-11" d="M108.49,46.19s0,0,0,0c.67-1.16,3.26-5,8-4.86,5.59.14,6,2.71,2.71,2S111.16,42.55,108.49,46.19Z" transform="translate(-0.58 -0.58)"/><path class="cls-11" d="M143.4,38.59a0,0,0,0,0,0-.06c-.66-.38-3.26-1.76-5.54-1-2.6.89-5,4.33-3,3.14C136.69,39.66,138.49,37.73,143.4,38.59Z" transform="translate(-0.58 -0.58)"/><path class="cls-5" d="M144.34,37.78s-1.08-7.67-4.18-10.9-6.69-7-12.06-6.56-5.85,2.15-8.12,3-8.53,1.37-11.34,4.42S99,36.37,99.21,42.28s1.19,18.64.48,18.75S96.77,56,93,55.71" transform="translate(-0.58 -0.58)"/><path class="cls-5" d="M141.74,68.63s-3.27,4.41-7.9,5.59c-5.18,1.33-11.31-1.88-11.31-1.88" transform="translate(-0.58 -0.58)"/></g></svg>